<?xml version="1.0" standalone="no"?><!DOCTYPE svg PUBLIC "-//W3C//DTD SVG 1.1//EN" "http://www.w3.org/Graphics/SVG/1.1/DTD/svg11.dtd"><svg class="icon" width="200px" height="200.00px" viewBox="0 0 1024 1024" version="1.1" xmlns="http://www.w3.org/2000/svg"><path d="M0 0h1024v1024H0z" fill="#D8D8D8" fill-opacity="0" /><path d="M480 576l-32 112 64 112 64-112-32-112h128a160 160 0 0 1 160 160v96a64 64 0 0 1-64 64H256a64 64 0 0 1-64-64v-96a160 160 0 0 1 160-160h128z m32-448a192 192 0 1 1 0 384 192 192 0 0 1 0-384z" fill="#40D4CF" /></svg>