<?xml version="1.0" standalone="no"?><!DOCTYPE svg PUBLIC "-//W3C//DTD SVG 1.1//EN" "http://www.w3.org/Graphics/SVG/1.1/DTD/svg11.dtd"><svg class="icon" width="200px" height="200.00px" viewBox="0 0 1024 1024" version="1.1" xmlns="http://www.w3.org/2000/svg"><path d="M859.8 369.4c-74-28.9-115.4-104.7-135.1-153.1-10.5-25.8-35.6-42.6-63.5-42.6H361.5c-27.8 0-53 16.8-63.5 42.6-19.7 48.4-61.2 124.3-135.2 153.2-20.1 7.8-32.9 27.4-33 48.9-0.5 279.7 257.5 435.4 349.5 482.1 20.1 10.2 43.9 10.1 63.9-0.3 91.8-47.6 350.4-206.1 349.6-481.8 0-21.5-13-41.1-33-49z" fill="#FEAC33" /><path d="M361.5 173.8c-26 0-49.7 14.7-61.2 37.6 24.2-15.5 50.4-28.1 78-37.6h-16.8zM162.8 369.5c-20.1 7.8-32.9 27.4-33 48.9 0 19.6 1.2 38.6 3.6 57 4.6-37.4 14.8-73.1 29.8-106.1-0.1 0.1-0.3 0.1-0.4 0.2zM724.7 216.4c-10.5-25.8-35.6-42.6-63.5-42.6H616c44.8 15.3 85.7 39.1 120.8 69.5-4.7-9.6-8.7-18.7-12.1-26.9zM448.3 883.9c11.6 6.6 22.1 12.1 31 16.6 20.1 10.2 43.9 10.1 63.9-0.3 11.9-6.1 26.5-14.1 43-24-28.5 7.1-58.4 10.9-89.1 10.9-16.5 0-32.8-1.1-48.8-3.2zM859.8 369.4c-14.2-5.6-27.3-12.9-39.2-21.4 27.5 51.4 43.1 110.1 43.1 172.5 0 24.3-2.4 48-6.9 70.9 22.4-51.4 36.2-109.1 36-173.1 0-21.4-13-41-33-48.9z" fill="#FEAC33" /><path d="M820.6 348.1c-39.4-28.1-66.4-69.5-83.8-104.8-35.1-30.3-76-54.1-120.8-69.5H378.3c-27.7 9.5-53.8 22.2-78 37.6-0.8 1.6-1.6 3.3-2.3 5-5.7 14-13.2 30.3-22.8 47.1 55.3-47.5 127.2-76.3 205.9-76.3 174.6 0 316.1 141.5 316.1 316.1S655.7 819.4 481.1 819.4 165 677.9 165 503.3c0-58.4 15.8-113 43.4-159.9-13.5 10.5-28.5 19.4-45.2 26-15 33.1-25.2 68.7-29.8 106.1 28 218.5 214.8 351.8 314.9 408.4 16 2.1 32.3 3.2 48.8 3.2 30.7 0 60.6-3.8 89.1-10.9 81.6-48.8 208.8-143.1 270.6-284.7 4.5-22.9 6.9-46.6 6.9-70.9 0-62.4-15.6-121.1-43.1-172.5z" fill="#FEB133" /><path d="M481.1 819.4c174.6 0 316.1-141.5 316.1-316.1S655.7 187.2 481.1 187.2c-78.6 0-150.6 28.7-205.9 76.3-16 28.1-37.9 57.5-66.8 79.9-27.6 46.9-43.4 101.5-43.4 159.9 0 174.6 141.5 316.1 316.1 316.1zM465 220.3c146.7 0 265.7 119 265.7 265.7S611.8 751.7 465 751.7 199.4 632.7 199.4 486 318.3 220.3 465 220.3z" fill="#FEB633" /><path d="M465 751.7c146.7 0 265.7-119 265.7-265.7S611.8 220.3 465 220.3 199.4 339.3 199.4 486 318.3 751.7 465 751.7z m-16-498.3c118.9 0 215.3 96.4 215.3 215.3S567.9 684 449 684s-215.3-96.4-215.3-215.3S330.1 253.4 449 253.4z" fill="#FFBC34" /><path d="M449 684c118.9 0 215.3-96.4 215.3-215.3S567.9 253.4 449 253.4s-215.3 96.4-215.3 215.3S330.1 684 449 684z m-16-397.5c91.1 0 164.9 73.8 164.9 164.9S524 616.3 433 616.3s-164.9-73.8-164.9-164.9S341.9 286.5 433 286.5z" fill="#FFC134" /><path d="M433 616.3c91.1 0 164.9-73.8 164.9-164.9S524 286.5 433 286.5s-164.9 73.8-164.9 164.9S341.9 616.3 433 616.3z m-16.1-296.7c63.2 0 114.5 51.2 114.5 114.5s-51.2 114.5-114.5 114.5-114.5-51.2-114.5-114.5 51.3-114.5 114.5-114.5z" fill="#FFC634" /><path d="M335.931515 515.06024a114.5 114.5 0 1 0 161.924627-161.930279 114.5 114.5 0 1 0-161.924627 161.930279Z" fill="#FFCB34" /><path d="M511 917c-12.3 0-24.5-2.8-35.7-8.5-46.1-23.4-134.9-74.6-211.9-155.5-42.9-45-76.6-93.5-100.2-144.1-28.2-60.3-42.4-124.4-42.3-190.6 0-25.7 15.2-48.2 38.7-57.3 31.3-12.2 59.6-34.5 84.1-66.4 22.3-28.9 37.3-60.4 46-81.8 11.9-29.3 40.1-48.2 71.8-48.2h299.7c31.7 0 59.9 18.9 71.8 48.2 8.7 21.4 23.7 52.9 45.9 81.7 24.5 31.8 52.8 54.2 84.1 66.4 23.5 9.2 38.7 31.7 38.8 57.3 0.2 65.2-14 128.7-42.2 188.7-23.7 50.3-57.4 98.7-100.3 143.9-77 81.1-165.8 133.3-211.9 157.2-11.4 6.1-23.9 9-36.4 9zM361.5 182.8c-24.4 0-46 14.5-55.1 37-13.3 32.6-29.6 61.5-48.4 86-26.6 34.5-57.5 58.8-91.9 72.2-16.3 6.3-27.2 22.6-27.3 40.6-0.2 117.7 46.1 226.1 137.6 322.2 75.1 78.9 161.9 129 207 151.8 17.5 8.9 38.3 8.8 55.7-0.3 45.1-23.4 131.9-74.4 207.2-153.6 91.6-96.5 137.9-204.2 137.6-320.2-0.1-17.9-11-34.3-27.3-40.6-34.3-13.4-65.2-37.7-91.8-72.1-18.9-24.5-35.1-53.4-48.4-85.9-9.1-22.5-30.8-37-55.1-37H361.5v-0.1z" fill="#FFA820" /><path d="M575.1 615.8h-34.2v-71.4c59.6-15.2 103.7-69.3 103.7-133.6 0-76.2-61.7-137.9-137.9-137.9s-137.9 61.7-137.9 137.9c0 64.3 44.1 118.4 103.7 133.6v161.7c0 18.8 15.4 34.3 34.3 34.3 18.8 0 34.3-15.4 34.3-34.3v-21.8h34.2c18.8 0 34.3-15.4 34.3-34.3-0.2-18.8-15.6-34.2-34.5-34.2z m-137.9-205c0-38.4 31.1-69.5 69.5-69.5s69.5 31.1 69.5 69.5-31.1 69.5-69.5 69.5-69.5-31.1-69.5-69.5z" fill="#FFE3B4" /><path d="M225.1 561c-1.9 2-4.3 3.6-7 4.5-9.4 3.3-19.7-1.6-23-11-24.9-70.6-25.9-129.4-26-131.9-0.1-9.9 7.8-18.1 17.8-18.2 9.9-0.1 18.1 7.8 18.2 17.8 0 1 1.2 55.9 23.9 120.4 2.4 6.6 0.7 13.7-3.9 18.4zM254.6 625.9c-1.3 1.4-2.9 2.6-4.8 3.6-8.8 4.6-19.7 1.1-24.2-7.8l-5.2-10c-4.6-8.8-1.1-19.7 7.8-24.2 8.8-4.6 19.7-1.1 24.2 7.8l5.2 10c3.5 7 2.1 15.2-3 20.6z" fill="#FFFFFF" /></svg>