<?xml version="1.0" standalone="no"?><!DOCTYPE svg PUBLIC "-//W3C//DTD SVG 1.1//EN" "http://www.w3.org/Graphics/SVG/1.1/DTD/svg11.dtd"><svg class="icon" width="200px" height="200.00px" viewBox="0 0 1024 1024" version="1.1" xmlns="http://www.w3.org/2000/svg"><path d="M691.7 134.8c-73.5 0-131.7 37.5-176.4 99-45.1-61.5-102.9-99-176.4-99C206.2 134.8 98 254.1 98 401.3c0 87.8 38.8 149.3 69.8 198.6 89.7 144 306.5 298.6 316 306.1 9.4 7.5 19.9 10.7 31 10.7 11 0 21.5-3.7 31-10.7 9.4-7.5 226.2-162.7 316.5-306.1 31-49.2 69.8-110.8 69.8-198.6-0.1-146.7-108.2-266.5-240.4-266.5z" fill="#37AFFA" /><path d="M261.2 149C166.4 184.8 98 284.3 98 401.3c0 15.3 1.2 29.9 3.3 43.7 7.8-120.9 68.8-227.3 159.9-296zM434.3 868.4c27.9 21.8 46.8 35.4 49.5 37.5 9.4 7.5 19.9 10.7 31 10.7 11 0 21.5-3.7 31-10.7 2.9-2.3 25.3-18.5 57.6-44-31.8 8.1-65.2 12.4-99.6 12.4-23.7 0.1-46.9-2-69.5-5.9zM731.8 138.5C837.6 211.2 907 333 907 471.1c0 19.3-1.4 38.3-4 56.9 16.5-35.5 29-76.9 29-126.7 0-131.5-86.9-241.5-200.2-262.8z" fill="#37AFFA" /><path d="M343.6 134.8c-1.5 0-3.1-0.1-4.6-0.1-27.2 0-53.4 5-77.8 14.3-91.1 68.7-152.1 175.1-159.8 296 10 65.2 40.9 114.2 66.5 154.9 4.9 7.8 10.2 15.7 15.8 23.6-28.6-50.6-45-109-45-171.3-0.1-141.3 84-262.8 204.9-317.4zM731.8 138.5c-13.1-2.5-26.5-3.8-40.1-3.8-17.3 0-33.8 2.1-49.4 6.1 114 57.2 192.3 175.1 192.3 311.4 0 192.2-155.8 348-348 348-80.9 0-155.4-27.6-214.5-74 57.5 57.9 120.1 109.3 162.3 142.2 22.6 3.9 45.8 6 69.4 6 34.4 0 67.7-4.3 99.6-12.4 72.9-57.6 196.3-162.7 258.9-262.1 13.4-21.3 28.2-44.8 40.8-71.8 2.6-18.6 4-37.6 4-56.9-0.1-138.2-69.5-260-175.3-332.7z" fill="#41B6FB" /><path d="M834.6 452.2c0-136.2-78.3-254.2-192.3-311.3-19.9 5.1-38.4 13.2-55.7 24C690 210.1 762.2 313.2 762.2 433.2c0 161.7-131.1 292.7-292.7 292.7s-292.8-131-292.8-292.7c0-140.6 99.1-258 231.2-286.2-19.9-7.5-41.3-11.7-64.3-12.2-120.9 54.5-205 176.1-205 317.3 0 62.3 16.4 120.7 45 171.3 24.7 34.9 55.8 69.8 88.5 102.7 59.1 46.3 133.6 74 214.5 74 192.2 0.1 348-155.7 348-347.9z" fill="#4CBCFC" /><path d="M176.7 433.2c0 161.7 131.1 292.7 292.7 292.7s292.7-131.1 292.7-292.7c0-120-72.2-223.1-175.6-268.3-14 8.8-27.2 19.4-39.5 31.6 84 36.6 142.7 120.3 142.7 217.8 0 131.2-106.3 237.5-237.5 237.5S214.8 545.4 214.8 414.3s106.3-237.5 237.5-237.5c3 0 5.9 0.1 8.8 0.2-16.5-12.7-34.2-22.9-53.2-30-132.1 28.2-231.2 145.6-231.2 286.2z" fill="#56C3FD" /><path d="M214.8 414.3c0 131.2 106.3 237.5 237.5 237.5s237.5-106.3 237.5-237.5c0-97.4-58.7-181.2-142.7-217.8-10.8 10.7-21 22.7-30.6 35.7 59.8 29.9 100.9 91.7 100.9 163.1 0 100.6-81.6 182.2-182.2 182.2S253 495.9 253 395.3s81.6-182.2 182.2-182.2c27.8 0 54.2 6.2 77.8 17.4-15.7-20.9-32.9-38.9-51.8-53.5-2.9-0.1-5.9-0.2-8.8-0.2-131.3 0-237.6 106.3-237.6 237.5z" fill="#60C9FD" /><path d="M252.9 395.3c0 100.6 81.6 182.2 182.2 182.2s182.2-81.6 182.2-182.2c0-71.4-41.1-133.2-100.9-163.1-0.4 0.5-0.8 1-1.1 1.5-0.8-1.1-1.6-2.2-2.5-3.3-23.6-11.1-49.9-17.4-77.8-17.4-100.6 0.1-182.1 81.7-182.1 182.3z m292-19c0 70.1-56.8 127-127 127s-127-56.8-127-127 56.8-127 127-127 127 56.9 127 127z" fill="#6BCFFE" /><path d="M417.9 376.3m-127 0a127 127 0 1 0 254 0 127 127 0 1 0-254 0Z" fill="#75D6FF" /><path d="M691.7 152.8c29.7 0 58.5 6.5 85.7 19.3 26.4 12.4 50.2 30.3 70.7 53 20.6 22.9 36.8 49.5 48.2 79.1 11.8 30.8 17.8 63.4 17.8 97.1 0 36.5-7.1 71.4-21.8 106.6-13 31.1-30 58.2-45 82.1l-0.2 0.3c-34.4 54.6-91.8 117.7-170.6 187.3-62.4 55.2-117.9 96.5-136.2 110-3 2.2-4.4 3.3-5.3 4-6.4 4.7-13.2 7-20.1 7-7.5 0-14-2.2-19.8-6.8-0.9-0.7-2.3-1.8-5.8-4.3-18.3-13.5-73.9-54.8-136.2-109.9-78.6-69.5-135.8-132.6-170-187.3l-0.2-0.4c-15-23.9-32.1-51-45-82.1-14.7-35.2-21.8-70.1-21.8-106.6 0-137 100-248.5 222.9-248.5 32.3 0 62.5 8.1 89.7 24 26 15.2 50.3 37.9 72.1 67.7l14.6 19.9 14.5-20c21.5-29.6 45.6-52.3 71.8-67.6 27.4-15.9 57.6-23.9 90-23.9m0-18c-73.5 0-131.7 37.5-176.4 99-45.1-61.5-102.9-99-176.4-99C206.2 134.8 98 254.1 98 401.3c0 87.8 38.8 149.3 69.8 198.6 89.7 144 306.5 298.6 316 306.1 9.4 7.5 19.9 10.7 31 10.7 11 0 21.5-3.7 31-10.7 9.4-7.5 226.2-162.7 316.5-306.1 31-49.2 69.8-110.8 69.8-198.6-0.1-146.7-108.2-266.5-240.4-266.5z" fill="#37AFFA" /><path d="M603.4 270c-36.8 0-65.9 19.1-88.2 50.6-22.6-31.4-51.5-50.6-88.2-50.6-66.4 0-120.5 61-120.5 136.1 0 44.8 19.4 76.3 34.9 101.4 44.9 73.5 153.3 152.5 158 156.4 4.7 3.8 10 5.5 15.5 5.5s10.8-1.9 15.5-5.5c4.7-3.8 113.1-83.1 158.3-156.4 15.5-25.2 34.9-56.6 34.9-101.4 0-74.8-54.1-136.1-120.2-136.1z" fill="#B9E8FF" /><path d="M225 274c-4 0-8-1.3-11.3-4-7.7-6.3-8.9-17.6-2.7-25.3 57.5-71 144.2-62.6 147.9-62.2 9.9 1.1 17 9.9 16 19.8-1.1 9.9-9.9 17-19.8 16-0.6-0.1-18.6-1.7-41.9 3.7-30.6 7-55.5 22.3-74.2 45.4-3.6 4.3-8.8 6.6-14 6.6z" fill="#FFFFFF" /><path d="M187.4 335.6c-2.4 0-4.8-0.5-7.1-1.5-9.1-3.9-13.4-14.5-9.5-23.6l5.3-12.3c3.9-9.1 14.5-13.4 23.6-9.5s13.4 14.5 9.5 23.6l-5.3 12.3c-2.9 7-9.5 11-16.5 11z" fill="#FFFFFF" /></svg>