<?xml version="1.0" standalone="no"?><!DOCTYPE svg PUBLIC "-//W3C//DTD SVG 1.1//EN" "http://www.w3.org/Graphics/SVG/1.1/DTD/svg11.dtd"><svg class="icon" width="200px" height="200.00px" viewBox="0 0 1024 1024" version="1.1" xmlns="http://www.w3.org/2000/svg"><path d="M741.930667 917.333333a24.064 24.064 0 0 1-11.776-3.157333l-0.128-0.042667-0.085334-0.042666-188.970666-103.765334a67.84 67.84 0 0 0-30.933334-8.533333h-13.909333l-1.621333 0.298667a54.528 54.528 0 0 0-18.645334 6.485333L287.146667 912.64a26.709333 26.709333 0 0 1-16.298667 2.730667c-13.781333-2.901333-23.04-17.493333-20.778667-32.682667l37.973334-220.757333v-0.298667a73.429333 73.429333 0 0 0-19.328-62.08l-154.154667-157.312a28.970667 28.970667 0 0 1-6.442667-29.098667 27.392 27.392 0 0 1 21.034667-19.328l211.456-32.298666a68.522667 68.522667 0 0 0 54.016-39.338667l93.354667-201.557333a25.728 25.728 0 0 1 3.84-5.717334l2.816-2.304 1.450666-1.152 1.237334-1.450666a7.381333 7.381333 0 0 1 0.768-0.725334l2.261333-0.853333 0.426667-0.213333 0.341333-0.170667 3.2-1.365333h12.202667c8.362667 1.28 15.658667 6.741333 19.626666 14.848l94.634667 200.618666c9.728 20.949333 28.928 35.712 51.285333 39.296l212.224 32.426667a27.605333 27.605333 0 0 1 21.717334 19.072 29.226667 29.226667 0 0 1-7.04 29.056l-159.616 159.061333-0.085334 0.085334-0.085333 0.085333c-15.786667 16.085333-23.04 39.168-19.456 61.824v0.128l0.042667 0.170667 37.930666 220.928a28.330667 28.330667 0 0 1-10.709333 27.648l-0.256 0.170666-0.213333 0.170667a23.850667 23.850667 0 0 1-14.634667 5.077333z" fill="#FFBB00" fill-opacity="0.2" /><path d="M741.930667 896a2.645333 2.645333 0 0 0 1.621333-0.64l0.938667-0.682667c1.493333-1.109333 2.730667-3.797333 2.218666-6.784l-38.016-221.525333a93.866667 93.866667 0 0 1 25.301334-80.085333l0.341333-0.341334 159.701333-159.146666c1.706667-1.706667 2.389333-4.693333 1.706667-7.381334-0.938667-2.389333-2.730667-4.181333-4.650667-4.48l-212.352-32.426666a90.282667 90.282667 0 0 1-67.242666-51.370667l-94.464-200.277333A6.058667 6.058667 0 0 0 514.218667 128h-4.650667l-2.304 1.92-0.042667 0.085333L413.866667 331.349333a89.728 89.728 0 0 1-70.4 51.328l-210.816 32.170667c-1.706667 0.384-3.413333 2.218667-4.181334 4.650667l-0.128 0.298666a7.68 7.68 0 0 0 1.450667 7.509334l154.282667 157.44c20.266667 20.992 29.610667 50.944 25.045333 80.170666l-0.085333 0.64-37.888 220.458667c-0.554667 4.224 1.621333 7.509333 3.626666 8.362667a5.12 5.12 0 0 0 2.389334-0.597334l188.16-103.808c8.021333-4.522667 16.682667-7.552 25.856-8.96l3.285333-0.512h16.170667c14.208 0.426667 28.288 4.266667 40.661333 11.178667l189.269333 103.936c0.469333 0.256 0.896 0.384 1.322667 0.384m0 42.666667a45.226667 45.226667 0 0 1-22.272-5.888l-188.928-103.765334a46.378667 46.378667 0 0 0-21.333333-5.845333h-11.562667a33.450667 33.450667 0 0 0-11.52 4.010667l-189.013333 104.234666a47.658667 47.658667 0 0 1-30.293334 4.949334c-25.258667-5.034667-42.112-30.336-37.973333-57.088l37.973333-220.928a51.925333 51.925333 0 0 0-13.610666-43.946667l-154.026667-157.226667a50.304 50.304 0 0 1-11.52-50.773333 48.64 48.64 0 0 1 37.973333-33.664l212.053334-32.384c16.085333-1.706667 30.250667-12.074667 37.504-27.306667l93.44-201.685333c2.218667-4.48 5.077333-8.618667 8.533333-12.117333l3.84-3.114667a29.013333 29.013333 0 0 1 6.826667-5.845333l4.693333-1.792 7.253333-3.157334h17.92c16.085333 1.749333 30.165333 11.861333 37.546667 26.965334l94.72 200.704c6.826667 14.72 20.053333 24.917333 35.370667 27.349333l212.053333 32.426667c17.92 2.688 32.853333 15.701333 38.826667 33.664 5.546667 18.005333 0.725333 37.76-12.373334 50.773333l-159.573333 158.933333a51.072 51.072 0 0 0-13.653333 43.562667l37.973333 220.970667c3.2 18.730667-4.309333 37.674667-19.2 48.512a45.226667 45.226667 0 0 1-27.648 9.472z" fill="#FFBB00" /></svg>